<svg width="13" height="13" viewBox="0 0 13 13" fill="none" xmlns="http://www.w3.org/2000/svg">
<path d="M12.6333 5.13335C12.6333 5.87201 12.0386 6.46668 11.3 6.46668H7.79997C7.0613 6.46668 6.46663 7.06135 6.46663 7.80001V11.3C6.46663 12.0387 5.87197 12.6333 5.1333 12.6333" stroke="#0092FF" stroke-width="0.6" stroke-linecap="round" stroke-linejoin="round"/>
<path d="M11.3 0.300003H1.63332C0.896941 0.300003 0.299988 0.896957 0.299988 1.63334V11.3C0.299988 12.0364 0.896941 12.6333 1.63332 12.6333H11.3C12.0364 12.6333 12.6333 12.0364 12.6333 11.3V1.63334C12.6333 0.896957 12.0364 0.300003 11.3 0.300003Z" stroke="#0695FF" stroke-width="0.6" stroke-linecap="round" stroke-linejoin="round"/>
<path d="M10.9318 8.18295C11.1373 8.18295 11.3038 8.04863 11.3038 7.88295C11.3038 7.71726 11.1373 7.58295 10.9318 7.58295C10.7263 7.58295 10.5597 7.71726 10.5597 7.88295C10.5597 8.04863 10.7263 8.18295 10.9318 8.18295Z" fill="#0092FF"/>
<path d="M10.9577 9.11668V10.8833M9.54965 10H8.36832M8.07565 10.8833L8.95899 8.21667L9.84232 10.8833" stroke="#0092FF" stroke-width="0.6" stroke-linecap="round" stroke-linejoin="round"/>
<path d="M3.4178 11.1597C3.58348 11.1597 3.7178 11.0254 3.7178 10.8597C3.7178 10.694 3.58348 10.5597 3.4178 10.5597C3.25211 10.5597 3.1178 10.694 3.1178 10.8597C3.1178 11.0254 3.25211 11.1597 3.4178 11.1597Z" fill="#0092FF"/>
<path d="M3.4178 8.18295C3.58348 8.18295 3.7178 8.04863 3.7178 7.88295C3.7178 7.71726 3.58348 7.58295 3.4178 7.58295C3.25211 7.58295 3.1178 7.71726 3.1178 7.88295C3.1178 8.04863 3.25211 8.18295 3.4178 8.18295Z" fill="#0092FF"/>
<path d="M1.79999 9.55001H4.96665M8.31665 2.15001L10.7833 4.61667M10.7833 2.15001L8.31665 4.61667M2.09165 3.38334H4.67499M3.38332 2.09167V4.67501" stroke="#0092FF" stroke-width="0.6" stroke-linecap="round" stroke-linejoin="round"/>
</svg>
