<svg width="18" height="18" viewBox="0 0 18 18" fill="none" xmlns="http://www.w3.org/2000/svg">
<path d="M17.0729 6.99478C17.0729 7.98736 16.2739 8.78645 15.2813 8.78645H10.5781C9.58556 8.78645 8.78648 9.58553 8.78648 10.5781V15.2812C8.78648 16.2738 7.9874 17.0729 6.99481 17.0729" stroke="#0092FF" stroke-linecap="round" stroke-linejoin="round"/>
<path d="M15.2812 0.5H2.29167C1.30216 0.5 0.5 1.30216 0.5 2.29167V15.2812C0.5 16.2708 1.30216 17.0729 2.29167 17.0729H15.2812C16.2708 17.0729 17.0729 16.2708 17.0729 15.2812V2.29167C17.0729 1.30216 16.2708 0.5 15.2812 0.5Z" stroke="#0092FF" stroke-linecap="round" stroke-linejoin="round"/>
<path d="M14.7865 11.2865C15.0626 11.2865 15.2865 11.0626 15.2865 10.7865C15.2865 10.5103 15.0626 10.2865 14.7865 10.2865C14.5103 10.2865 14.2865 10.5103 14.2865 10.7865C14.2865 11.0626 14.5103 11.2865 14.7865 11.2865Z" fill="#0092FF"/>
<path d="M14.8212 12.3474V14.7213M12.9292 13.5344H11.3418M10.9485 14.7213L12.1355 11.138L13.3225 14.7213" stroke="#0092FF" stroke-linecap="round" stroke-linejoin="round"/>
<path d="M4.78647 15.2865C5.06261 15.2865 5.28647 15.0626 5.28647 14.7865C5.28647 14.5103 5.06261 14.2865 4.78647 14.2865C4.51033 14.2865 4.28647 14.5103 4.28647 14.7865C4.28647 15.0626 4.51033 15.2865 4.78647 15.2865Z" fill="#0092FF"/>
<path d="M4.78647 11.2865C5.06261 11.2865 5.28647 11.0626 5.28647 10.7865C5.28647 10.5103 5.06261 10.2865 4.78647 10.2865C4.51033 10.2865 4.28647 10.5103 4.28647 10.7865C4.28647 11.0626 4.51033 11.2865 4.78647 11.2865Z" fill="#0092FF"/>
<path d="M2.51562 12.9297H6.77083M11.2724 2.98593L14.587 6.30052M14.587 2.98593L11.2724 6.30052M2.90755 4.64322H6.37891M4.64323 2.90755V6.3789" stroke="#0092FF" stroke-linecap="round" stroke-linejoin="round"/>
</svg>
